<?xml version="1.0" standalone="no"?><!DOCTYPE svg PUBLIC "-//W3C//DTD SVG 1.1//EN" "http://www.w3.org/Graphics/SVG/1.1/DTD/svg11.dtd"><svg t="1587093166750" class="icon" viewBox="0 0 1024 1024" version="1.1" xmlns="http://www.w3.org/2000/svg" p-id="6465" xmlns:xlink="http://www.w3.org/1999/xlink" width="200" height="200"><defs><style type="text/css"></style></defs><path d="M113 489.5C113 268.9 291.6 90 512 90s399 178.9 399 399.5S732.4 889 512 889 113 710.1 113 489.5z" fill="#333F50" p-id="6466"></path><path d="M194.2 607.6l0.5 1.8 0.2 1.8-0.1 1.8-0.4 1.7-0.6 1.6-0.9 1.5-1.1 1.4-1.3 1.2-1.5 1-1.7 0.8-1.8 0.5-1.8 0.2-1.8-0.1-1.7-0.4-1.7-0.6-1.5-0.9-1.4-1.1-1.2-1.3-1-1.5-0.8-1.7-1-2.9-1-2.9-0.9-2.9-0.9-2.9-0.9-2.9-0.9-2.9-0.9-2.9-0.8-2.9-0.8-2.9-0.8-2.9-0.8-2.9-0.7-2.9-0.7-2.9-0.7-2.9-0.7-2.9-0.6-2.9-0.6-2.9-0.6-2.9-0.6-2.9-0.5-2.9-0.5-2.9-0.5-2.9-0.5-2.9-0.4-3-0.4-3-0.4-3-0.4-3-0.4-3-0.3-3-0.3-3-0.3-3-0.3-3-0.2-3-0.2-3-0.2-3-0.2-3-0.1-3-0.1-3-0.1-3-0.1-3v-15l0.1-3 0.1-3 0.1-3 0.1-3 0.2-3 0.2-3 0.2-3 0.2-3 0.3-3 0.3-3 0.3-3 0.3-3 0.4-2.9 0.4-2.9 0.4-2.9 0.4-2.9 0.4-2.9 0.5-2.9 0.5-2.9 0.5-2.9 0.5-2.9 0.6-2.9 0.6-2.9 0.6-2.9 0.6-2.9 0.7-2.9 0.7-2.9 0.7-2.9 0.7-2.9 0.7-2.9 0.8-2.9 0.8-2.9 0.8-2.9 0.8-2.9 0.9-2.9 0.9-2.9 0.9-2.8 0.9-2.8 1-2.8 1-2.8 1-2.8 1-2.8 1-2.8 1.1-2.8 1.1-2.8 1.1-2.8 1.1-2.8 1.2-2.8 1.2-2.8 1.2-2.8 1.2-2.8 1.3-2.7 1.3-2.7 2.6-5.4 1.4-2.8 1.4-2.7 1.4-2.7 1.4-2.7 1.4-2.7 1.5-2.6 1.5-2.6 1.5-2.6 1.5-2.6 1.5-2.6 1.6-2.6 1.6-2.6 1.6-2.5 1.6-2.5 1.6-2.5 1.6-2.5 1.7-2.5 1.7-2.5 1.7-2.5 1.7-2.4 1.7-2.4 1.8-2.4 1.8-2.4 1.8-2.4 1.8-2.4 1.8-2.4 1.9-2.3 1.9-2.3 1.9-2.3 1.9-2.3 1.9-2.3 1.9-2.3 2-2.2 2-2.2 2-2.2 2-2.2 2-2.2 2-2.2 2.1-2.1 2.1-2.1 2.1-2.1 2.1-2.1 2.1-2.1 2.1-2.1 2.2-2 2.2-2 2.2-2 2.2-2 2.2-2 2.2-2 2.3-1.9 2.3-1.9 2.3-1.9 2.3-1.9 2.3-1.9 2.3-1.9 2.3-1.8 2.4-1.8 2.4-1.8 2.4-1.8 2.4-1.8 2.4-1.7 2.4-1.7 2.4-1.7 2.5-1.7 2.5-1.7 2.5-1.6 2.5-1.6 2.5-1.6 2.5-1.6 2.5-1.6 2.6-1.5 2.6-1.5 2.6-1.5 2.6-1.5 2.6-1.5 2.6-1.4 2.6-1.4 2.6-1.4 2.7-1.4 2.7-1.4 2.7-1.3 2.7-1.3 2.7-1.3 2.7-1.3 2.7-1.3 2.7-1.2 2.8-1.2 2.8-1.2 2.8-1.2 2.8-1.2 2.8-1.1 2.8-1.1 2.8-1.1 2.8-1.1 2.8-1 2.8-1 2.9-1 5.7-1.9 3.7-0.6 3.5 0.6 3.2 1.6 2.6 2.5 1.7 3.3 0.6 3.6-0.6 3.5-1.6 3.2-2.5 2.5-3.3 1.7-5.4 1.8-2.7 0.9-2.7 1-2.7 1-2.7 1-2.6 1-2.6 1-2.6 1.1-2.6 1.1-2.6 1.1-2.6 1.1-2.6 1.1-2.6 1.2-2.6 1.2-2.5 1.2-2.5 1.2-2.5 1.2-2.5 1.3-2.5 1.3-2.5 1.3-2.5 1.3-2.5 1.3-2.5 1.4-2.4 1.4-2.4 1.4-2.4 1.4-2.4 1.4-2.4 1.5-2.4 1.5-2.4 1.5-2.4 1.5-2.3 1.5-2.3 1.5-2.3 1.6-2.3 1.6-2.3 1.6-2.3 1.6-2.3 1.6-2.3 1.7-2.2 1.7-2.2 1.7-2.2 1.7-2.2 1.7-2.2 1.7-2.2 1.8-2.2 1.8-2.1 1.8-2.1 1.8-2.1 1.8-2.1 1.8-2.1 1.9-2.1 1.9-2.1 1.9-2 1.9-2 1.9-2 1.9-2 2-2 2-2 2-2 2-1.9 2-1.9 2-1.9 2-1.9 2.1-1.9 2.1-1.9 2.1-1.8 2.1-1.8 2.1-1.8 2.1-1.8 2.2-1.8 2.2-1.8 2.2-1.7 2.2-1.7 2.2-1.7 2.2-1.7 2.2-1.7 2.3-1.7 2.3-1.6 2.3-1.6 2.3-1.6 2.3-1.6 2.3-1.6 2.3-1.5 2.4-1.5 2.4-1.5 2.4-1.5 2.4-1.5 2.4-1.5 2.4-1.4 2.4-1.7 2.8-1.4 2.5-1.4 2.5-1.4 2.5-1.3 2.5-1.3 2.5-1.3 2.5-1.3 2.5-1.2 2.5-2.5 5.2-1.2 2.6-1.2 2.6-1.2 2.6-1.1 2.6-1.1 2.6-1.1 2.6-1.1 2.6-1.1 2.6-1 2.6-1 2.6-1 2.6-1 2.6-0.9 2.7-0.9 2.7-0.9 2.7-0.9 2.7-0.9 2.7-0.8 2.7-0.8 2.7-0.8 2.7-0.8 2.7-0.7 2.7-0.7 2.7-0.7 2.7-0.7 2.7-0.7 2.7-0.6 2.7-0.6 2.7-0.6 2.7-0.6 2.7-0.6 2.7-0.5 2.7-0.5 2.7-0.5 2.7-0.5 2.8-0.4 2.8-0.4 2.8-0.4 2.8-0.4 2.8-0.4 2.8-0.3 2.8-0.3 2.8-0.3 2.8-0.3 2.8-0.2 2.8-0.2 2.8-0.2 2.8-0.2 2.8-0.2 2.8-0.1 2.8-0.1 2.8-0.1 2.8-0.1 2.8v14l0.1 2.8 0.1 2.8 0.1 2.8 0.1 2.8 0.2 2.8 0.2 2.8 0.2 2.8 0.2 2.8 0.2 2.8 0.3 2.8 0.3 2.8 0.3 2.8 0.3 2.8 0.4 2.8 0.4 2.8 0.4 2.8 0.4 2.8 0.4 2.8 0.5 2.8 0.5 2.8 0.5 2.8 0.5 2.8 0.6 2.8 0.6 2.8 0.6 2.7 0.6 2.7 0.6 2.7 0.7 2.7 0.7 2.7 0.7 2.7 0.7 2.7 0.8 2.7 0.8 2.7 0.8 2.7 0.8 2.7 0.8 2.7 0.9 2.7 0.9 2.7 0.9 2.7 1.1 1.9zM181 653c0-7.7 6.3-14 14-14s14 6.3 14 14-6.3 14-14 14-14-6.3-14-14zM468.8 178.7c-0.4-0.6-1.1-1-1.9-0.9l-8.3 1-5.5-6.3c-0.5-0.6-1.3-0.8-2-0.6-0.7 0.2-1.3 0.8-1.4 1.5l-1.6 8.2-7.7 3.3c-0.7 0.3-1.1 1-1.2 1.7 0 0.7 0.4 1.5 1 1.8l7.3 4.1 0.8 8.3c0.1 0.7 0.6 1.4 1.3 1.7 0.7 0.3 1.5 0.1 2-0.4l6.2-5.7 8.2 1.8c0.3 0.1 0.6 0.1 0.9 0 0.4-0.1 0.8-0.3 1-0.7 0.5-0.6 0.6-1.4 0.3-2.1l-3.5-7.6 4.3-7.2c0.2-0.5 0.2-1.3-0.2-1.9zM805.8 297.3c-0.2-0.7-0.8-1.2-1.6-1.4l-8.2-1.2-3.7-7.6c-0.3-0.7-1-1.1-1.8-1.1s-1.4 0.4-1.8 1.1l-3.7 7.6-8.2 1.2c-0.7 0.1-1.4 0.6-1.6 1.4-0.2 0.7 0 1.5 0.5 2l6 5.9-1.4 8.3c-0.1 0.8 0.2 1.5 0.8 1.9 0.6 0.4 1.4 0.5 2.1 0.2l7.4-3.9 7.4 3.9c0.3 0.2 0.6 0.2 0.9 0.2 0.4 0 0.8-0.1 1.2-0.4 0.6-0.4 0.9-1.2 0.8-1.9l-1.4-8.3 6-5.9c0.3-0.5 0.5-1.3 0.3-2z" fill="#FFFFFF" p-id="6467"></path><path d="M247.4 576.2c0-0.7-0.4-1.4-1.1-1.8l-7.4-3.8-1.1-8.3c-0.1-0.7-0.6-1.4-1.3-1.6-0.7-0.2-1.5-0.1-2 0.5l-6 5.9-8.2-1.6c-0.7-0.1-1.5 0.2-1.9 0.7-0.5 0.6-0.5 1.4-0.2 2.1l3.8 7.5-4 7.3c-0.4 0.7-0.3 1.5 0.1 2.1 0.4 0.6 1.2 0.9 1.9 0.8l8.3-1.3 5.7 6.1c0.2 0.2 0.5 0.4 0.8 0.5 0.4 0.1 0.8 0.1 1.2 0 0.7-0.2 1.2-0.8 1.4-1.6l1.4-8.3 7.6-3.6c0.5-0.1 1-0.8 1-1.6zM800.8 654.3c-0.2-0.7-0.8-1.2-1.6-1.4l-8.2-1.2-3.7-7.6c-0.3-0.7-1-1.1-1.8-1.1s-1.4 0.4-1.8 1.1l-3.7 7.6-8.2 1.2c-0.7 0.1-1.4 0.6-1.6 1.4-0.2 0.7 0 1.5 0.5 2l6 5.9-1.4 8.3c-0.1 0.8 0.2 1.5 0.8 1.9 0.6 0.4 1.4 0.5 2.1 0.2l7.4-3.9 7.4 3.9c0.3 0.2 0.6 0.2 0.9 0.2 0.4 0 0.8-0.1 1.2-0.4 0.6-0.4 0.9-1.2 0.8-1.9l-1.4-8.3 6-5.9c0.3-0.5 0.5-1.3 0.3-2z" fill="#FFFFFF" p-id="6468"></path><path d="M363 165l3.7 1.2c27.2 11.5 46.3 38.4 46.3 69.7V690H313V235.9c0-31.3 19.1-58.2 46.3-69.7l3.7-1.2z" fill="#FACC7E" p-id="6469"></path><path d="M339 240c0-4.4 3.6-8 8-8h32c4.4 0 8 3.6 8 8v34c0 4.4-3.6 8-8 8h-32c-4.4 0-8-3.6-8-8v-34z" fill="#FFFFFF" p-id="6470"></path><path d="M313 305h101v58H313zM313 392h101v58H313zM313 480h101v58H313zM313 568h101v58H313z" fill="#F6A824" p-id="6471"></path><path d="M510.6 27l1.4 0.4 1.4-0.4v0.9l9 2.8c52.1 22.1 88.6 73.8 88.6 134V662H413V164.7c0-60.2 36.5-111.9 88.6-134l9-2.8V27z" fill="#F97B6E" p-id="6472"></path><path d="M413 166h198v496H413z" fill="#E6E5E5" p-id="6473"></path><path d="M660 165l-3.7 1.2c-27.2 11.5-46.3 38.4-46.3 69.7V690h100V235.9c0-31.3-19.1-58.2-46.3-69.7L660 165z" fill="#FACC7E" p-id="6474"></path><path d="M683 239.8c0-4.3-3.5-7.8-7.8-7.8h-31.3c-4.3 0-7.8 3.5-7.8 7.8v34.3c0 4.3 3.5 7.8 7.8 7.8h31.3c4.3 0 7.8-3.5 7.8-7.8v-34.3z" fill="#FFFFFF" p-id="6475"></path><path d="M609 305h101v58H609zM609 392h101v58H609zM609 480h101v58H609zM609 568h101v58H609z" fill="#F6A824" p-id="6476"></path><path d="M513 124l3.7 1.2c27.2 11.5 46.3 38.5 46.3 69.9v455H463V195c0-31.4 19.1-58.4 46.3-69.9l3.7-1.1z" fill="#FACC7E" p-id="6477"></path><path d="M497.9 226l-1.4 1.4-1.6 1.1-1.7 0.8-1.8 0.5-1.8 0.2h-1.8l-1.8-0.3-1.8-0.6-1.7-0.9-1.5-1.2-1.3-1.4-1.1-1.6-0.8-1.7-0.5-1.8-0.2-1.9v-1.9l0.3-1.8 0.6-1.8 0.9-1.7 1.2-1.6 0.3-0.3 0.3-0.3 0.3-0.3 0.3-0.3 0.3-0.3 0.3-0.3 0.3-0.3 0.3-0.3 0.3-0.3 0.3-0.3 0.3-0.3 0.3-0.3 0.3-0.3 0.3-0.3 0.3-0.3 0.3-0.2 0.3-0.3 0.3-0.3 0.3-0.2 0.3-0.2 0.3-0.2 0.3-0.2 0.3-0.2 0.3-0.2 0.3-0.2 0.3-0.2 0.3-0.2 0.3-0.2 0.3-0.2 0.3-0.2 0.3-0.2 0.3-0.2 0.3-0.2 0.3-0.2 0.3-0.2 0.3-0.2 0.3-0.2 0.3-0.2 0.3-0.2 0.3-0.2 0.3-0.2 0.3-0.2 0.3-0.2 0.3-0.2 0.3-0.2 0.3-0.2 0.3-0.2 0.3-0.2 0.3-0.2 0.3-0.2 0.3-0.2 0.3-0.2 0.4-0.2 0.4-0.2 0.4-0.1 0.4-0.1 0.4-0.1 0.4-0.1 0.4-0.1 0.4-0.1 0.4-0.1 0.4-0.1 0.4-0.1 0.4-0.1 0.4-0.1 0.4-0.1 0.4-0.1 0.4-0.1 0.4-0.1 0.4-0.1 0.4-0.1 0.4-0.1 0.4-0.1 0.4-0.1 0.4-0.1 0.4-0.1 0.4-0.1 0.4-0.1 0.4-0.1 0.4-0.1 0.4-0.1 0.4-0.1 0.4-0.1 0.4-0.1 0.4-0.1 0.4-0.1 0.4-0.1H522l0.4 0.1 0.4 0.1 0.4 0.1 0.4 0.1 0.4 0.1 0.4 0.1 0.4 0.1 0.4 0.1 0.4 0.1 0.4 0.1 0.4 0.1 0.4 0.1 0.4 0.1 0.4 0.1 0.4 0.1 0.4 0.1 0.4 0.1 0.4 0.1 0.4 0.1 0.4 0.1 0.4 0.1 0.4 0.1 0.4 0.1 0.4 0.1 0.4 0.1 0.4 0.1 0.4 0.1 0.4 0.1 0.4 0.1 0.4 0.1 0.4 0.1 0.4 0.1 0.4 0.1 0.4 0.2 0.3 0.2 0.3 0.2 0.3 0.2 0.3 0.2 0.3 0.2 0.3 0.2 0.3 0.2 0.3 0.2 0.3 0.2 0.3 0.2 0.3 0.2 0.3 0.2 0.3 0.2 0.3 0.2 0.3 0.2 0.3 0.2 0.3 0.2 0.3 0.2 0.3 0.2 0.3 0.2 0.3 0.2 0.3 0.2 0.3 0.2 0.3 0.2 0.3 0.2 0.3 0.2 0.3 0.2 0.3 0.2 0.3 0.2 0.3 0.2 0.3 0.2 0.3 0.2 0.3 0.2 0.3 0.2 0.3 0.2 0.3 0.2 0.3 0.3 0.3 0.3 0.3 0.3 0.3 0.3 0.3 0.3 0.3 0.3 0.3 0.3 0.3 0.3 0.3 0.3 0.3 0.3 0.5 0.5 2.2 3.2 1.1 3.6v3.7l-1.2 3.6-2.3 3.1-3.1 2.2-3.6 1.1h-3.7l-3.5-1.2-3.1-2.3-0.3-0.3-0.1-0.1-0.1-0.1-0.1-0.1-0.1-0.1-0.1-0.1-0.1-0.1-0.1-0.1-0.1-0.1-0.1-0.1-0.1-0.1-0.1-0.1-0.1-0.1-0.1-0.1-0.1-0.1-0.2-0.1-0.2-0.1-0.2-0.1-0.2-0.1-0.2-0.1-0.2-0.1-0.2-0.1-0.2-0.1-0.2-0.1-0.2-0.1-0.2-0.1-0.2-0.1-0.2-0.1-0.2-0.1-0.2-0.1-0.2-0.1-0.2-0.1-0.2-0.1-0.2-0.1-0.2-0.1-0.2-0.1-0.2-0.1-0.2-0.1-0.2-0.1-0.2-0.1-0.2-0.1-0.2-0.1-0.2-0.1-0.2-0.1-0.2-0.1-0.2-0.1-0.2-0.1-0.2-0.1-0.2-0.1-0.2-0.1-0.2-0.1-0.2-0.1-0.2-0.1-0.2-0.1-0.2-0.1-0.2-0.1-0.2-0.1-0.2-0.1-0.2-0.1-0.2-0.1-0.2-0.1-0.2-0.1-0.2-0.1-0.2-0.1H508.5l-0.2 0.1-0.2 0.1-0.2 0.1-0.2 0.1-0.2 0.1-0.2 0.1-0.2 0.1-0.2 0.1-0.2 0.1-0.2 0.1-0.2 0.1-0.2 0.1-0.2 0.1-0.2 0.1-0.2 0.1-0.2 0.1-0.2 0.1-0.2 0.1-0.2 0.1-0.2 0.1-0.2 0.1-0.2 0.1-0.2 0.1-0.2 0.1-0.2 0.1-0.2 0.1-0.2 0.1-0.2 0.1-0.2 0.1-0.2 0.1-0.2 0.1-0.2 0.1-0.2 0.1-0.2 0.1-0.2 0.1-0.2 0.1-0.2 0.1-0.2 0.1-0.2 0.1-0.2 0.1-0.2 0.1-0.2 0.1-0.2 0.1-0.2 0.1-0.2 0.1-0.2 0.1-0.2 0.1-0.2 0.1-0.1 0.1-0.1 0.1-0.1 0.1-0.1 0.1-0.2 0.1-0.1 0.1-0.1 0.1-0.1 0.1-0.1 0.1-0.1 0.1-0.1 0.1-0.1 0.1-0.1 0.1-0.1 0.1-0.1 0.1-0.1 0.1-0.1 0.1-0.1 0.1-0.1 0.1-0.1 0.1-0.1 0.1 1.2 0.5z" fill="#5EC8FA" p-id="6478"></path><path d="M463 301v347H253v-6.1c-0.1-18.9 0.5-46.9 15.1-67.3 19.5-27.2 68.1-32.6 101.9-80.5 29.6-41.9 67.1-142.9 91.4-190.2l1.6-2.9zM561 301v347h210v-6.1c0.1-18.9-0.5-46.9-15.1-67.3-19.5-27.2-68.1-32.6-101.9-80.5-29.6-41.9-67.1-142.9-91.4-190.2L561 301z" fill="#CFCECE" p-id="6479"></path><path d="M442 545c23.7 0 43 19.3 43 43v61h-86v-61c0-23.7 19.3-43 43-43z" fill="#F97B6E" p-id="6480"></path><path d="M399 616h86v33h-86z" fill="#8CE8E4" p-id="6481"></path><path d="M569 546c23.7 0 43 19.3 43 43v61h-86v-61c0-23.7 19.3-43 43-43z" fill="#F97B6E" p-id="6482"></path><path d="M526 618h86v32h-86z" fill="#8CE8E4" p-id="6483"></path><path d="M508 514l1.6 0.3c12 3 20.4 9.9 20.4 18.1V650h-44V532.4c0-8.1 8.4-15.1 20.4-18.1l1.6-0.3z" fill="#FDEBCB" p-id="6484"></path><path d="M203.2 675c24.6 0 45.6 15 54.6 36.3l0.2 0.8 6.4 2c7.3 3.1 13.5 8.3 17.9 14.8l2.9 5.4 7.6-2.5c8.7-2.2 17.8-3.4 27.2-3.4 52.6 0 96.6 37.4 106.7 87.1v0.4l6.6-3.6c8.6-3.7 18.1-5.7 28-5.7 5 0 9.8 0.5 14.5 1.5l5.7 1.8 5.2-16.7c18.2-43.1 60.7-73.3 110.3-73.3 24.8 0 47.8 7.6 67 20.5l8.1 6.1 5.4-6.5c14.4-14.4 34.3-23.3 56.2-23.3 11 0 21.4 2.2 31 6.3l5.9 3.2 7.6-9.2c14.4-14.4 34.3-23.3 56.2-23.3 5.5 0 10.8 0.6 16 1.6l6.3 2-0.8 1.4C786.2 813.8 659.4 891 514.7 891s-271.5-77.2-341.6-192.7l-6.1-10.7 3-2.5c9.5-6.4 20.9-10.1 33.2-10.1z" fill="#FACC7E" p-id="6485"></path><path d="M197.4 718c9.7 0 18.6 3.9 25 10.3l3.8 4.6 3.3-0.3c18.9 0 35.1 11.5 42.1 27.8l0.3 1 7.5-1.1c2.7-0.3 5.5-0.4 8.3-0.4 39 0 71.5 27.6 79.1 64.3l0.3 2.9 6.7 1.5c13.1 4.1 23.8 13.8 29.1 26.3l1.4 4.4 4.6-2.5c6.7-2.8 14.1-4.4 21.9-4.4 15.5 0 29.6 6.3 39.8 16.4l0.2 0.2 3.4-2.4c5.4-3.3 11.4-5.7 17.8-7l9.5-1 0.3-0.5c17-25.1 45.7-41.5 78.2-41.5 6.5 0 12.9 0.7 19 1.9l4.7 1.2 6.1-7.4c13.6-13.6 32.4-22 53.2-22 10.4 0 20.3 2.1 29.3 5.9l1.8 1 2.2-2.7c11-11 26.3-17.8 43.1-17.8 8.4 0 16.4 1.7 23.7 4.8l3.1 1.7 0.1-1.1c5.7-27.7 30.3-48.6 59.7-48.6 4.2 0 8.3 0.4 12.3 1.2l0.9 0.3-13.4 17.9C752.3 841.5 641.5 898 517.4 898c-137.9 0-259.4-69.7-331.2-175.8l-1.2-1.8 5.3-1.6c2.3-0.6 4.7-0.8 7.1-0.8z" fill="#F6A824" p-id="6486"></path><path d="M550.8 826.9c-0.2-0.7-0.8-1.2-1.6-1.3l-8.2-1.2-3.7-7.3c-0.3-0.7-1-1.1-1.8-1.1s-1.4 0.4-1.8 1.1l-3.7 7.3-8.2 1.2c-0.7 0.1-1.4 0.6-1.6 1.3-0.2 0.7 0 1.5 0.5 2l6 5.7-1.4 8.1c-0.1 0.7 0.2 1.5 0.8 1.9 0.6 0.4 1.4 0.5 2.1 0.1l7.4-3.8 7.4 3.8c0.3 0.1 0.6 0.2 0.9 0.2 0.4 0 0.8-0.1 1.2-0.4 0.6-0.4 0.9-1.2 0.8-1.9l-1.4-8.1 6-5.7c0.3-0.4 0.5-1.2 0.3-1.9z" fill="#FFFFFF" p-id="6487"></path></svg>